<?xml version="1.0" standalone="no"?>
<!DOCTYPE svg PUBLIC "-//W3C//DTD SVG 20010904//EN"
 "http://www.w3.org/TR/2001/REC-SVG-20010904/DTD/svg10.dtd">
<svg version="1.0" xmlns="http://www.w3.org/2000/svg"
 width="2591.000000pt" height="2591.000000pt" viewBox="0 0 2591.000000 2591.000000"
 preserveAspectRatio="xMidYMid meet">
<metadata>
Created by potrace 1.11, written by Peter Selinger 2001-2013
</metadata>
<g transform="translate(0.000000,2591.000000) scale(0.100000,-0.100000)"
fill="#000000" stroke="none">
<path d="M11225 25869 c25 -81 141 -448 235 -744 23 -71 54 -170 70 -220 40
-127 220 -695 270 -850 23 -71 52 -164 65 -205 44 -141 93 -295 135 -425 23
-71 55 -173 71 -225 16 -52 35 -113 43 -135 8 -22 23 -69 34 -105 33 -108 142
-452 157 -495 7 -22 37 -114 65 -205 28 -91 83 -264 122 -385 38 -121 99 -312
135 -425 35 -113 70 -221 76 -240 6 -19 12 -37 12 -40 1 -3 13 -43 29 -90 15
-47 45 -141 67 -210 22 -69 42 -131 45 -139 3 -9 25 17 56 65 28 43 79 122
113 174 34 52 84 130 111 173 27 42 85 132 129 200 44 68 109 170 145 226 36
57 71 109 78 116 6 8 12 16 12 18 0 3 55 90 121 193 67 104 147 229 178 277
31 49 64 98 74 110 20 25 -46 -83 -170 -278 -45 -71 -92 -146 -103 -165 -11
-19 -39 -65 -62 -102 -48 -75 -477 -757 -697 -1108 -77 -124 -146 -232 -151
-240 -5 -8 -24 -37 -40 -65 -17 -27 -52 -84 -79 -125 -87 -136 -983 -1564
-1074 -1710 l-46 -76 15 -59 c9 -33 17 -67 19 -75 2 -8 8 -35 15 -60 7 -25 14
-52 15 -60 9 -43 31 -136 81 -340 31 -124 57 -232 59 -240 2 -8 9 -37 15 -65
6 -27 13 -57 15 -65 2 -8 24 -100 50 -205 26 -104 49 -201 51 -215 3 -14 7
-33 10 -42 3 -9 7 -25 9 -35 2 -10 34 -142 70 -293 37 -151 68 -282 70 -290 2
-8 26 -109 55 -225 28 -115 53 -217 55 -225 16 -73 163 -687 261 -1087 20 -82
37 -155 39 -163 2 -9 22 -94 45 -190 23 -96 59 -246 80 -333 21 -87 40 -160
42 -162 2 -2 28 51 58 118 52 117 76 171 154 340 20 43 36 79 36 81 0 2 18 43
40 90 22 47 40 88 40 90 0 2 15 37 34 78 33 70 230 509 363 808 36 80 76 170
90 200 14 30 42 93 63 140 21 47 51 114 68 150 16 36 55 124 87 195 31 72 70
158 86 193 16 34 48 104 70 155 23 50 51 112 62 137 11 25 21 47 22 50 1 3 8
21 17 40 9 19 48 107 87 195 40 88 81 180 93 205 11 25 38 86 60 135 22 50 48
108 58 130 10 22 29 65 43 95 13 30 39 87 57 125 17 39 38 84 45 100 7 17 27
60 44 98 17 37 31 69 31 72 0 2 16 37 35 77 19 40 84 186 146 323 255 572 261
585 312 695 16 36 44 99 62 140 18 41 44 100 58 130 14 30 48 106 75 167 l50
112 -19 88 c-11 49 -21 97 -24 108 -2 11 -6 29 -8 40 -4 17 -42 196 -52 245
-2 8 -9 38 -15 65 -6 28 -14 61 -16 75 -2 14 -11 54 -19 90 -8 36 -44 205 -81
375 -36 171 -77 362 -90 425 -22 101 -58 268 -70 325 -2 11 -7 34 -10 50 -2
17 -9 46 -14 65 -5 19 -18 78 -29 130 -11 52 -34 160 -51 240 -17 80 -35 165
-40 190 -5 25 -18 86 -29 135 -11 50 -32 144 -46 210 -14 66 -28 131 -31 145
-3 14 -18 84 -33 155 -16 72 -32 149 -36 172 -5 33 -17 51 -53 84 -26 24 -101
93 -167 155 -66 62 -131 122 -145 134 -14 12 -72 66 -130 120 -58 53 -127 117
-153 140 -27 24 -65 60 -86 79 -88 82 -254 236 -270 251 -18 15 -213 195 -255
235 -12 11 -75 69 -141 130 -66 60 -127 116 -136 125 -14 13 -178 165 -254
235 -167 153 -205 188 -241 222 -23 21 -90 83 -149 138 -60 55 -123 114 -141
130 -18 17 -76 71 -130 120 -54 50 -128 118 -164 151 -36 34 -86 81 -112 104
-26 23 -67 61 -91 84 -24 22 -84 77 -132 121 -49 44 -98 89 -109 100 -12 11
-35 33 -53 49 l-32 29 14 -44z m2711 -3497 c-17 -16 -18 -16 -5 5 7 12 15 20
18 17 3 -2 -3 -12 -13 -22z"/>
<path d="M11331 23678 c-5 -13 -32 -70 -59 -128 -48 -101 -74 -158 -132 -285
-28 -60 -37 -80 -170 -365 -39 -84 -86 -185 -104 -224 -58 -123 -227 -488
-262 -562 -18 -39 -64 -138 -102 -220 -178 -384 -245 -531 -307 -679 -36 -88
-72 -173 -79 -190 -8 -16 -37 -86 -65 -155 -29 -69 -59 -139 -67 -157 -8 -17
-14 -34 -14 -37 0 -5 -28 -71 -60 -141 -13 -28 -218 -518 -245 -585 -12 -30
-29 -71 -37 -90 -22 -48 -165 -389 -176 -420 -6 -14 -19 -46 -30 -70 -17 -39
-31 -72 -37 -90 -4 -11 -27 -66 -40 -95 -7 -16 -46 -106 -85 -200 -39 -93 -75
-179 -80 -190 -5 -11 -21 -49 -35 -85 -14 -36 -30 -74 -35 -85 -5 -11 -27 -63
-49 -115 -21 -52 -71 -169 -109 -260 -38 -91 -97 -232 -132 -315 -34 -82 -70
-169 -81 -192 -10 -24 -19 -45 -19 -48 0 -3 -9 -24 -20 -48 -18 -39 -122 -287
-227 -541 -24 -60 -41 -112 -36 -116 4 -4 98 -81 208 -171 110 -90 202 -166
205 -169 3 -3 39 -32 80 -65 41 -33 80 -65 85 -71 6 -6 46 -40 90 -76 136
-110 934 -768 985 -812 14 -12 48 -39 75 -61 28 -22 52 -43 55 -46 3 -3 71
-59 151 -125 143 -118 635 -523 674 -556 102 -86 300 -246 301 -245 1 1 -11
65 -27 142 -15 77 -31 155 -34 174 -3 18 -7 36 -9 40 -2 3 -7 22 -10 41 -4 30
-16 90 -41 220 -2 14 -7 36 -10 50 -3 14 -7 35 -10 48 -2 13 -6 31 -9 40 -3 9
-8 33 -11 52 -3 19 -21 112 -40 205 -19 94 -36 181 -38 195 -3 14 -12 59 -20
100 -9 41 -19 91 -22 110 -3 19 -12 64 -20 100 -8 36 -17 76 -19 90 -2 14 -30
151 -60 305 -31 154 -58 289 -60 300 -2 11 -24 121 -49 245 -26 124 -49 241
-52 260 -3 19 -8 42 -10 50 -2 8 -6 26 -9 40 -2 14 -39 196 -81 405 -42 209
-77 387 -77 395 -1 13 7 82 17 150 2 14 7 50 10 80 3 30 8 62 10 70 2 8 6 42
10 75 3 33 7 71 10 85 2 14 7 48 10 75 3 28 8 61 10 75 2 14 6 45 9 70 3 25 8
62 11 83 3 20 7 54 10 75 5 32 52 395 70 539 4 26 8 59 10 73 2 14 6 43 9 65
3 22 8 58 11 80 6 42 11 79 20 155 5 46 33 254 40 300 2 14 6 50 10 80 4 30 8
66 10 80 2 14 6 45 10 70 3 25 7 61 10 80 3 19 7 55 10 80 9 71 16 123 20 150
2 14 9 63 15 110 6 47 13 101 16 120 2 19 7 53 10 75 2 22 7 58 10 80 2 22 7
58 10 80 3 22 7 53 10 70 3 16 7 50 9 75 3 25 7 56 10 70 3 14 7 48 10 75 2
28 7 66 9 85 3 19 13 89 21 155 9 66 18 134 21 150 2 17 6 46 8 65 2 19 9 73
15 120 7 47 14 103 17 125 2 22 7 51 9 65 2 14 7 50 10 80 3 30 8 62 10 70 2
8 7 44 10 80 4 36 9 72 10 81 2 9 6 40 10 70 3 30 8 65 10 79 2 14 7 49 10 79
4 30 8 62 10 72 2 10 7 49 10 86 4 37 9 70 10 73 2 3 6 34 10 70 4 36 9 72 10
81 3 14 6 37 19 144 5 37 17 122 21 153 2 13 7 53 11 90 3 37 8 70 11 75 2 4
2 7 -2 7 -3 0 -9 -10 -14 -22z"/>
<path d="M14652 23695 c3 -5 44 -129 92 -275 48 -146 143 -434 211 -640 67
-206 216 -658 330 -1005 113 -346 210 -639 214 -650 5 -11 36 -103 69 -205
143 -440 464 -1417 471 -1435 5 -11 52 -155 106 -320 54 -165 99 -304 101
-310 2 -5 -10 -26 -27 -45 -17 -19 -56 -64 -87 -99 -55 -62 -69 -78 -115 -131
-11 -14 -55 -63 -96 -110 -79 -91 -106 -121 -337 -385 -81 -93 -151 -172 -154
-175 -3 -3 -34 -39 -69 -80 -35 -41 -71 -82 -80 -90 -9 -8 -24 -25 -33 -38 -8
-12 -35 -44 -59 -70 -140 -151 -153 -170 -309 -482 -84 -168 -291 -579 -460
-915 -169 -335 -439 -871 -600 -1190 l-292 -580 74 72 c218 215 675 667 1351
1337 418 413 868 859 1002 991 911 899 1217 1206 1220 1227 2 13 6 43 9 68 12
87 67 495 72 530 3 19 7 46 9 60 2 14 11 79 20 145 9 66 18 138 21 160 4 22 8
55 9 74 2 19 7 53 10 75 4 23 9 55 11 71 2 17 6 41 9 55 2 14 7 48 10 75 8 69
15 125 21 160 3 17 7 46 9 65 2 19 8 68 14 108 6 40 13 94 16 120 3 26 8 58
10 72 3 14 7 45 10 70 3 25 7 54 9 65 2 11 7 45 11 75 4 30 9 63 11 74 2 11
-27 56 -78 120 -45 55 -85 103 -88 106 -3 3 -79 97 -169 210 -91 113 -168 207
-171 210 -3 3 -21 25 -40 50 -19 25 -37 47 -40 50 -4 4 -412 507 -530 654 -8
10 -31 38 -50 61 -19 23 -42 51 -50 61 -18 22 -400 494 -830 1025 -346 426
-309 381 -550 679 -168 207 -231 281 -218 255z"/>
<path d="M15471 15055 c-17 -22 -111 -125 -241 -265 -34 -36 -180 -195 -229
-249 -13 -14 -69 -75 -125 -135 -149 -161 -154 -166 -246 -266 -47 -51 -92
-100 -101 -109 -8 -9 -46 -50 -84 -91 -38 -41 -96 -104 -129 -140 -64 -69
-236 -255 -324 -350 -28 -31 -59 -65 -69 -76 -10 -12 -65 -72 -123 -134 -58
-62 -116 -125 -130 -140 -14 -15 -65 -71 -115 -125 -154 -168 -319 -346 -406
-440 -31 -33 -69 -73 -84 -90 -42 -47 -196 -214 -234 -254 -28 -30 -111 -120
-231 -251 -14 -15 -72 -78 -130 -141 -58 -62 -134 -145 -170 -184 -35 -38 -83
-90 -106 -115 -47 -51 -63 -68 -189 -205 -49 -53 -103 -112 -120 -129 -16 -18
-68 -74 -115 -125 -47 -51 -100 -109 -117 -128 -28 -29 -37 -52 -35 -83 4 -48
19 -321 27 -480 3 -58 7 -127 10 -155 2 -27 7 -108 10 -180 4 -71 8 -155 10
-185 4 -56 13 -210 20 -335 2 -38 7 -124 10 -190 4 -66 8 -145 10 -175 3 -30
7 -109 10 -175 3 -66 7 -140 10 -165 2 -25 7 -106 10 -180 4 -74 8 -153 10
-176 2 -23 7 -99 10 -170 3 -71 8 -154 10 -184 3 -30 7 -104 10 -165 3 -60 7
-139 10 -175 2 -36 6 -112 9 -170 3 -58 8 -136 11 -175 2 -38 7 -124 11 -190
3 -66 7 -142 9 -170 2 -27 6 -104 9 -170 4 -66 9 -149 11 -185 2 -36 7 -114
10 -175 4 -60 8 -139 10 -175 4 -61 8 -124 20 -345 3 -49 7 -130 10 -180 2
-49 7 -128 10 -175 12 -188 15 -239 20 -335 3 -55 7 -140 10 -190 3 -49 8
-124 10 -165 7 -133 15 -273 20 -355 12 -192 25 -429 30 -535 3 -47 7 -121 10
-165 4 -75 9 -162 20 -345 11 -194 16 -282 20 -360 9 -149 14 -242 20 -345 3
-55 7 -134 10 -175 3 -41 7 -120 10 -175 3 -55 7 -134 10 -175 3 -41 7 -118
10 -170 3 -52 8 -133 10 -180 3 -47 7 -123 10 -170 12 -214 15 -271 20 -352 3
-48 8 -132 10 -185 3 -54 7 -132 10 -173 5 -80 12 -192 21 -355 3 -55 7 -125
9 -155 2 -30 7 -116 11 -190 4 -74 8 -151 9 -170 2 -19 4 -70 5 -113 2 -43 6
-75 10 -70 6 7 62 250 76 333 3 14 7 33 10 42 3 9 7 25 9 35 2 10 11 52 20 93
9 41 27 127 40 190 13 63 31 144 39 180 8 36 17 76 20 90 3 14 7 34 9 45 3 11
21 97 42 190 20 94 38 177 40 185 2 8 10 51 20 95 9 44 25 121 36 170 12 50
23 101 25 115 3 14 9 41 14 60 5 19 11 46 14 60 14 74 28 138 55 260 16 74 32
146 34 160 3 14 10 43 15 65 6 22 13 57 16 79 4 21 8 41 10 45 2 3 7 24 10 46
4 22 13 64 21 95 7 30 16 69 18 85 3 17 10 53 17 80 6 28 23 102 36 165 14 63
27 122 29 130 1 8 15 71 30 140 15 69 29 134 31 145 3 11 9 41 14 66 5 25 13
65 19 90 6 24 26 118 46 209 20 91 43 197 51 235 9 39 18 81 21 95 2 14 18 86
34 160 16 74 32 146 35 160 3 14 6 30 8 35 3 9 15 71 21 105 2 8 14 67 28 130
28 127 38 176 39 187 0 5 6 28 14 53 7 24 11 46 9 48 -2 2 0 15 6 29 5 13 11
38 15 56 3 18 14 70 24 117 10 47 21 96 24 110 3 14 14 66 25 115 11 50 23
106 26 125 3 19 12 60 20 90 7 30 16 69 18 85 3 17 26 122 51 235 25 113 47
216 50 230 4 24 79 371 131 605 13 61 26 121 29 135 13 67 19 94 46 215 16 72
32 144 34 160 3 17 10 45 15 63 5 18 10 35 10 37 0 3 5 29 10 58 6 28 13 61
15 72 3 11 9 40 15 65 5 25 12 56 14 70 3 14 10 43 15 65 6 22 14 56 17 75 3
19 17 87 31 150 14 63 32 144 39 180 8 36 23 106 34 155 11 50 22 101 25 115
3 14 7 34 9 45 8 35 79 359 83 380 2 11 6 29 8 40 14 62 86 395 91 420 3 17 7
35 9 40 1 6 6 28 11 50 10 50 7 39 49 235 20 91 40 183 46 205 5 22 12 52 15
68 6 33 7 37 44 207 16 74 32 147 35 163 2 15 7 35 10 45 3 9 7 28 10 42 2 14
23 111 46 215 23 105 44 199 46 210 1 11 5 29 8 40 2 11 16 72 29 135 14 63
39 180 56 260 17 80 33 154 36 165 2 11 6 29 8 40 8 35 79 359 83 380 7 38 12
60 38 175 14 63 27 126 30 140 2 14 18 86 35 160 16 74 32 146 35 160 10 52
67 316 76 350 5 19 11 49 14 65 3 17 7 39 9 50 3 11 21 97 42 190 20 94 38
177 40 185 2 8 10 51 20 95 9 44 25 121 36 170 12 50 23 101 25 115 3 14 9 41
14 60 5 19 11 46 14 60 14 74 28 138 55 260 16 74 32 146 34 160 3 14 10 43
15 65 6 22 13 56 16 76 3 20 8 42 10 50 3 8 8 25 10 39 3 14 7 34 9 45 13 57
50 233 53 255 3 14 7 32 10 40 4 11 47 209 69 323 5 23 0 22 -24 -8z"/>
<path d="M9700 14329 c0 -6 9 -50 20 -98 11 -47 32 -135 46 -196 42 -185 52
-227 68 -295 8 -36 29 -123 45 -195 17 -71 58 -248 91 -393 34 -145 64 -275
66 -289 5 -26 31 -138 89 -378 15 -60 28 -119 30 -130 1 -11 28 -130 60 -265
31 -135 58 -252 60 -260 2 -8 26 -114 55 -235 28 -121 53 -229 55 -240 3 -11
16 -70 30 -130 31 -133 65 -285 70 -305 2 -8 18 -76 35 -150 17 -74 33 -142
35 -150 2 -8 13 -55 24 -105 12 -49 25 -108 30 -130 6 -22 10 -41 10 -43 1 -6
12 -52 26 -112 8 -36 17 -74 19 -85 3 -11 10 -42 16 -70 6 -27 13 -57 15 -65
2 -8 9 -37 15 -65 6 -27 14 -61 16 -74 3 -14 7 -28 9 -31 2 -4 7 -20 9 -36 7
-33 8 -38 36 -159 27 -119 29 -127 34 -151 2 -11 11 -49 20 -85 15 -59 82
-348 91 -394 3 -11 32 -139 66 -284 33 -145 62 -271 64 -280 2 -9 22 -92 44
-186 22 -93 42 -181 45 -195 2 -14 14 -65 26 -115 11 -49 27 -118 35 -152 8
-35 22 -91 30 -125 8 -35 17 -74 19 -88 3 -14 20 -90 40 -170 19 -80 40 -173
47 -207 15 -72 29 -84 24 -20 -2 23 -7 96 -10 162 -3 66 -8 149 -11 185 -2 36
-6 110 -9 165 -3 55 -7 136 -10 180 -6 107 -13 228 -20 350 -3 55 -7 132 -10
170 -2 39 -7 115 -10 170 -3 55 -7 136 -10 180 -3 44 -7 125 -10 180 -4 55 -8
129 -11 165 -2 36 -6 108 -9 160 -9 194 -15 307 -20 365 -2 33 -7 114 -10 180
-3 66 -8 145 -10 175 -3 30 -7 105 -10 165 -3 61 -7 142 -10 180 -3 39 -8 117
-10 175 -3 58 -7 139 -10 180 -2 41 -7 129 -11 195 -3 66 -7 131 -7 144 -1 17
12 39 38 67 22 23 81 86 130 140 50 54 103 112 119 129 15 16 63 68 105 114
42 46 92 101 111 121 19 21 80 86 135 146 55 59 126 136 157 169 31 34 67 72
78 85 12 14 66 72 119 130 136 145 161 174 161 180 0 3 -32 30 -71 60 -39 30
-76 60 -83 65 -6 6 -72 57 -146 115 -74 58 -142 110 -150 117 -211 168 -609
479 -649 508 -16 11 -46 34 -67 51 -41 33 -219 173 -584 458 -118 92 -228 178
-245 191 -23 19 -260 203 -310 243 -5 4 -74 58 -152 120 -79 62 -143 107 -143
101z"/>
</g>
</svg>
